<svg xmlns="http://www.w3.org/2000/svg" width="128" height="128" viewBox="0 0 128 128" role="img" aria-labelledby="title desc">
  <title id="title">Tab Harbor icon</title>
  <desc id="desc">A quiet harbor mark with layered tabs and a small mooring line.</desc>

  <defs>
    <linearGradient id="paper" x1="26" y1="20" x2="102" y2="110" gradientUnits="userSpaceOnUse">
      <stop offset="0" stop-color="#fffaf0"/>
      <stop offset="1" stop-color="#e6f2ea"/>
    </linearGradient>
    <linearGradient id="water" x1="32" y1="78" x2="96" y2="106" gradientUnits="userSpaceOnUse">
      <stop offset="0" stop-color="#4f8c93"/>
      <stop offset="1" stop-color="#2f6770"/>
    </linearGradient>
    <filter id="soft-shadow" x="-25%" y="-25%" width="150%" height="150%">
      <feDropShadow dx="0" dy="7" stdDeviation="5" flood-color="#24323a" flood-opacity="0.18"/>
    </filter>
  </defs>

  <circle cx="64" cy="64" r="58" fill="#f7f1e6"/>
  <circle cx="64" cy="64" r="55" fill="#fbf7ee" stroke="#244047" stroke-width="3"/>

  <g filter="url(#soft-shadow)">
    <path d="M35 31h43l17 17v46a8 8 0 0 1-8 8H35a8 8 0 0 1-8-8V39a8 8 0 0 1 8-8Z" fill="url(#paper)"/>
    <path d="M78 31v16a4 4 0 0 0 4 4h13" fill="#d7e7dc"/>
    <path d="M39 49h30M39 61h42M39 73h31" stroke="#38545a" stroke-width="4" stroke-linecap="round" opacity="0.78"/>
  </g>

  <g>
    <path d="M28 88c12-8 24-8 36 0s24 8 36 0v15c-12 8-24 8-36 0s-24-8-36 0V88Z" fill="url(#water)"/>
    <path d="M43 91c8-3 15-2 21 2 7 4 14 5 22 2" fill="none" stroke="#eef7ec" stroke-width="4" stroke-linecap="round" opacity="0.86"/>
    <path d="M64 73v25" stroke="#244047" stroke-width="5" stroke-linecap="round"/>
    <path d="M52 78c8 5 16 5 24 0" fill="none" stroke="#244047" stroke-width="5" stroke-linecap="round"/>
    <circle cx="64" cy="73" r="4" fill="#244047"/>
  </g>
</svg>
